<mxfile host="Electron" modified="2023-09-25T21:05:04.549Z" agent="Mozilla/5.0 (X11; Linux x86_64) AppleWebKit/537.36 (KHTML, like Gecko) draw.io/21.6.5 Chrome/114.0.5735.243 Electron/25.3.1 Safari/537.36" etag="VCPpknjGztL3opACnU7N" version="21.6.5" type="device">
  <diagram id="BB-P8LQBv9p690ByxCHv" name="PÃ¡gina-1">
    <mxGraphModel dx="1760" dy="1098" grid="1" gridSize="1" guides="0" tooltips="1" connect="1" arrows="1" fold="1" page="1" pageScale="1" pageWidth="1169" pageHeight="827" background="none" math="1" shadow="1">
      <root>
        <mxCell id="0" />
        <mxCell id="1" parent="0" />
        <mxCell id="HCi2yKMFjKcAmUGEoa8m-7" value="" style="edgeStyle=orthogonalEdgeStyle;rounded=0;orthogonalLoop=1;jettySize=auto;html=1;strokeWidth=4;" parent="1" source="HCi2yKMFjKcAmUGEoa8m-3" edge="1">
          <mxGeometry relative="1" as="geometry">
            <mxPoint x="1057" y="474.5" as="targetPoint" />
          </mxGeometry>
        </mxCell>
        <mxCell id="HCi2yKMFjKcAmUGEoa8m-3" value="" style="rounded=1;whiteSpace=wrap;html=1;fillColor=none;" parent="1" vertex="1">
          <mxGeometry x="791" y="253" width="270" height="111" as="geometry" />
        </mxCell>
        <mxCell id="HCi2yKMFjKcAmUGEoa8m-4" value="Extrair" style="text;html=1;strokeColor=none;fillColor=none;align=center;verticalAlign=middle;whiteSpace=wrap;rounded=0;fontSize=37;" parent="1" vertex="1">
          <mxGeometry x="588" y="437" width="160" height="79" as="geometry" />
        </mxCell>
        <mxCell id="HCi2yKMFjKcAmUGEoa8m-15" style="edgeStyle=orthogonalEdgeStyle;rounded=0;orthogonalLoop=1;jettySize=auto;html=1;entryX=0.5;entryY=0;entryDx=0;entryDy=0;strokeWidth=4;" parent="1" source="HCi2yKMFjKcAmUGEoa8m-11" target="HCi2yKMFjKcAmUGEoa8m-3" edge="1">
          <mxGeometry relative="1" as="geometry" />
        </mxCell>
        <mxCell id="HCi2yKMFjKcAmUGEoa8m-11" value="" style="rounded=1;whiteSpace=wrap;html=1;fillColor=none;" parent="1" vertex="1">
          <mxGeometry x="595" y="133" width="150" height="111" as="geometry" />
        </mxCell>
        <mxCell id="HCi2yKMFjKcAmUGEoa8m-12" value="Drivers" style="text;html=1;strokeColor=none;fillColor=none;align=center;verticalAlign=middle;whiteSpace=wrap;rounded=0;fontSize=37;" parent="1" vertex="1">
          <mxGeometry x="590" y="151" width="160" height="79" as="geometry" />
        </mxCell>
        <mxCell id="-30fClsxpA420VmR24vq-1" value="" style="rounded=1;whiteSpace=wrap;html=1;fillColor=none;" vertex="1" parent="1">
          <mxGeometry x="1346" y="222" width="656" height="327" as="geometry" />
        </mxCell>
      </root>
    </mxGraphModel>
  </diagram>
</mxfile>
